<?xml version="1.0" encoding="utf-8"?>
<!-- Generator: Adobe Illustrator 22.0.1, SVG Export Plug-In . SVG Version: 6.00 Build 0)  -->
<svg version="1.1" id="Layer_1" xmlns="http://www.w3.org/2000/svg" xmlns:xlink="http://www.w3.org/1999/xlink" x="0px" y="0px"
	 viewBox="0 0 64 64" style="enable-background:new 0 0 64 64;" xml:space="preserve">
<style type="text/css">
	.st0{fill:none;stroke:#54EFFF;stroke-miterlimit:10;}
	.st1{fill:none;stroke:#54EFFF;stroke-linecap:round;stroke-linejoin:round;stroke-miterlimit:10;}
	.st2{fill:#54EFFF;}
	.st3{font-family:'MarqueeMoon-Regular';}
	.st4{font-size:16.6022px;}
</style>
<circle class="st0" cx="32" cy="32" r="31"/>
<path class="st1" d="M37.2,56.7c9.2,0,20.7-10.3,20.7-21.8h2.3c0,13.8-12.6,25.3-25.8,25.3"/>
<path class="st1" d="M27.4,56.7c-9.2,0-20.7-10.3-20.7-21.8H4.4c0,13.8,12.6,25.3,25.8,25.3"/>
<text transform="matrix(1 0 0 1 17.3979 29.0229)"><tspan x="0" y="0" class="st2 st3 st4">Game</tspan><tspan x="-1.9" y="19.9" class="st2 st3 st4">Token</tspan></text>
<circle class="st0" cx="32.2" cy="60.2" r="1.8"/>
<circle class="st0" cx="29" cy="56.5" r="1.5"/>
<circle class="st0" cx="35.5" cy="56.5" r="1.5"/>
<g>
	<path class="st1" d="M37.2,8.3c9.2,0,20.7,10.3,20.7,21.8h2.3c0-13.8-12.6-25.3-25.8-25.3"/>
	<path class="st1" d="M27.4,8.3c-9.2,0-20.7,10.3-20.7,21.8H4.4c0-13.8,12.6-25.3,25.8-25.3"/>
	<circle class="st0" cx="32.2" cy="4.7" r="1.8"/>
	<circle class="st0" cx="29" cy="8.5" r="1.5"/>
	<circle class="st0" cx="35.5" cy="8.5" r="1.5"/>
</g>
<g>
	<circle class="st0" cx="36.6" cy="32" r="1.5"/>
	<circle class="st0" cx="51.8" cy="45.1" r="1.1"/>
	<polyline class="st1" points="38.7,32 51.8,32 51.8,44 	"/>
</g>
<g>
	<circle class="st0" cx="28.3" cy="31.9" r="1.5"/>
	<circle class="st0" cx="13.2" cy="18.8" r="1.1"/>
	<polyline class="st1" points="26.3,31.9 13.2,31.9 13.2,19.9 	"/>
</g>
</svg>
