<?xml version="1.0" encoding="utf-8"?>
<!-- Generator: Adobe Illustrator 22.0.1, SVG Export Plug-In . SVG Version: 6.00 Build 0)  -->
<svg version="1.1" id="Layer_1" xmlns="http://www.w3.org/2000/svg" xmlns:xlink="http://www.w3.org/1999/xlink" x="0px" y="0px"
	 viewBox="0 0 64 64" style="enable-background:new 0 0 64 64;" xml:space="preserve">
<style type="text/css">
	.st0{display:none;}
	.st1{display:inline;}
	
		.st2{fill:none;stroke:#000000;stroke-width:0.8333;stroke-miterlimit:10;stroke-dasharray:1.425,14.2498,5.6999,1.425,14.2498,5.6999;}
	.st3{display:inline;fill:none;stroke:#000000;stroke-width:3;stroke-miterlimit:10;}
	
		.st4{fill:none;stroke:#000000;stroke-width:2.95;stroke-miterlimit:10;stroke-dasharray:2.0589,20.5895,8.2358,2.0589,20.5895,8.2358;}
	.st5{display:inline;fill:none;stroke:#000000;stroke-width:2;stroke-miterlimit:10;}
	.st6{display:inline;fill:none;stroke:#000000;stroke-width:0.6042;stroke-miterlimit:10;}
	
		.st7{fill:none;stroke:#000000;stroke-width:0.681;stroke-miterlimit:10;stroke-dasharray:2.9681,2.9684,1.4842,4.4527,3.5621,8.9053;}
	.st8{fill:none;stroke:#000000;stroke-miterlimit:10;stroke-dasharray:3.7034,3.7034,1.8517,5.5551;}
	.st9{display:inline;filter:url(#Adobe_OpacityMaskFilter);}
	.st10{display:inline;mask:url(#SVGID_1_);}
	.st11{fill:#54EFFF;}
	.st12{filter:url(#Adobe_OpacityMaskFilter_1_);}
	.st13{mask:url(#SVGID_2_);}
	.st14{fill:url(#SVGID_3_);}
</style>
<rect x="0" class="st0" width="64" height="64"/>
<g class="st0">
	<g class="st1">
		<circle class="st2" cx="32" cy="32" r="20.4"/>
	</g>
	<circle class="st3" cx="32" cy="32" r="25"/>
	<g class="st1">
		<circle class="st4" cx="32" cy="32" r="29.5"/>
	</g>
	<circle class="st5" cx="32" cy="32" r="17.9"/>
	<circle class="st6" cx="32" cy="32" r="12.1"/>
	<circle class="st6" cx="32" cy="32" r="13.8"/>
	<g class="st1">
		<circle class="st7" cx="32" cy="32" r="15.5"/>
	</g>
	<circle class="st6" cx="32" cy="32" r="12.1"/>
	<g class="st1">
		<circle class="st8" cx="32" cy="32" r="7.1"/>
	</g>
</g>
<g class="st0">
	<defs>
		<filter id="Adobe_OpacityMaskFilter" filterUnits="userSpaceOnUse" x="-1.4" y="43" width="65.2" height="20.6">
			<feFlood  style="flood-color:white;flood-opacity:1" result="back"/>
			<feBlend  in="SourceGraphic" in2="back" mode="normal"/>
		</filter>
	</defs>
	<mask maskUnits="userSpaceOnUse" x="-1.4" y="43" width="65.2" height="20.6" id="SVGID_1_" class="st1">
		<g style="filter:url(#Adobe_OpacityMaskFilter);">
			<image style="overflow:visible;" width="70" height="26" xlink:href="80E2863594639FC2.jpg"  transform="matrix(1 0 0 1 -4 40)">
			</image>
		</g>
	</mask>
	<g class="st10">
		<path class="st11" d="M62.1,50l0.4-0.1l-2.4-1.5c-1.4-0.8-3.1-1.6-5.1-2.3l-0.3-0.1L51.3,47c-1.4-0.5-3-0.9-4.7-1.2
			c-3.1-0.6-6.5-1.1-10.1-1.3l0.7-1.3l-1.5-0.1c-0.7,0-1.5-0.1-2.2-0.1l-0.8,0l-0.3,1.3c-0.6,0-1.1,0-1.7,0c-1.6,0-3.1,0-4.6,0.1
			l-0.9-1.3l-0.6,0c-7.4,0.4-14,1.6-18.7,3.3l-3.1,1.1L3,47.7c-1.1,0.6-2,1.2-2.7,1.8L-1.4,51l4.8,0.5c-0.4,0.7-0.5,1.4-0.4,2
			c0.1,0.6,0.3,1.3,0.7,1.9L-1,55.8l2.1,1.5c0.3,0.2,0.6,0.4,1,0.6l0.3,0.2l4.1-0.6c0.4,0.2,0.8,0.4,1.2,0.6l-3.7,1l3.2,1.1
			c1.7,0.6,3.7,1.1,5.9,1.5c4.1,0.8,8.6,1.4,13.5,1.6l0.7,0l0.7-1.3l-0.3,1.3l1.2,0c1,0,2,0,3,0c2,0,4-0.1,5.9-0.2l1.8-0.1L38.4,62
			c5.4-0.4,10.3-1.3,14-2.6l3.6,0.9l0.3-0.1c0.5-0.2,0.9-0.4,1.4-0.6l2.9-1.3l-4.2-0.9c0.3-0.2,0.5-0.3,0.7-0.5l4.4,0.4l0.3-0.3
			c1.3-1.2,2-2.4,1.9-3.8C63.7,52.1,63.2,51,62.1,50z M54.1,53.3c0.1,0.6-0.4,1.3-1.3,1.9c0.5-0.8,0.7-1.5,0.6-2
			c0-0.6-0.2-1.2-0.6-1.7C53.6,52.2,54.1,52.8,54.1,53.3z M30.6,54.2c-0.6,0-1.1-0.1-1.6-0.1l-0.4,0l-0.7,0.6l-2.3-1.4
			c-0.1,0-0.1-0.1-0.2-0.1l0,0l0.2,0l0.3-0.1c0.3-0.1,0.6-0.2,1-0.3l3.3-0.8l-2.9-1c1.1-0.1,2.2-0.2,3.4-0.2l-0.3,1.5l1.2,0
			c1.1,0,2.2,0.1,3.1,0.3l0.3,0.1l0.4-0.2l1.3,0.8c0.1,0.1,0.2,0.1,0.2,0.1l-0.3,0l-0.3,0.1c-0.6,0.2-1.4,0.5-2.4,0.6l-2,0.3l0-0.1
			L30.6,54.2z M26.8,55.5c-0.8-0.1-1.6-0.2-2.3-0.4l3.3-0.4L26.8,55.5z M22.5,52.5l-0.1,0.4c-0.1,0.4-0.1,1.3,1,2.1
			c-2.6-0.7-3.3-1.5-3.3-1.7c0-0.1,0.2-0.5,1.5-1.1c0.3-0.1,0.6-0.2,1-0.4l-1.1,0.4L22.5,52.5z M31.5,55.8l0.2-1l1.5,0.9
			C32.7,55.8,32.1,55.8,31.5,55.8z M41.1,54.2l-1.9-0.3l1.3-0.1l-1-1.5c-0.2-0.2-0.4-0.5-0.7-0.7c2.6,0.7,3.3,1.5,3.3,1.7
			C42.2,53.4,42,53.7,41.1,54.2z M16,52.1l-0.4,0c0.2-0.1,0.4-0.2,0.6-0.4C16.1,51.8,16.1,52,16,52.1z M46.2,54.4l0.4,0
			c-0.2,0.1-0.4,0.2-0.6,0.4C46.1,54.7,46.1,54.6,46.2,54.4z M13.5,56.7C13.5,56.7,13.5,56.7,13.5,56.7l-0.3,0.1
			c-0.1,0-0.2-0.1-0.2-0.1L13.5,56.7z M50.9,56.3c-0.1,0-0.2,0.1-0.3,0.1l-0.8-0.2L50.9,56.3z M8.6,52l2.3,0.2
			c-0.2,0.4-0.2,0.8-0.2,1.2c0,0.4,0.2,0.7,0.3,1.1l-2,0.2c-0.6-0.5-1-1-1-1.5C8,52.8,8.2,52.4,8.6,52z"/>
	</g>
</g>
<g>
	
		<image style="overflow:visible;opacity:0.75;" width="68" height="28" xlink:href="80E2863594639FC6.png"  transform="matrix(1 0 0 1 -2.4556 37.5444)">
	</image>
	<g>
		<g>
			<path class="st11" d="M20.2,56.1c-1.3-0.3-2.5-0.6-3.5-0.9l0.6-0.1c1,0.3,2.1,0.6,3.4,0.9c2.4,0.5,5,0.8,7.8,0.9l-0.1,0.2
				C25.4,57,22.7,56.6,20.2,56.1z M13.7,53.9c-0.2-0.1-0.4-0.2-0.5-0.4l0.7-0.1c0.2,0.1,0.3,0.2,0.5,0.4L13.7,53.9z M29.7,57.2
				l0.1-0.2c1.7,0,3.5,0,5.2-0.1l0.2,0.2C33.3,57.2,31.5,57.2,29.7,57.2z M12.7,49.6c0.6-0.5,1.4-1,2.4-1.4l0.6,0.1
				c-1,0.4-1.7,0.9-2.3,1.3L12.7,49.6z M46.4,55.1L45.8,55c0.3-0.1,0.5-0.2,0.8-0.3l0.5,0.1l0.2,0.1C46.9,54.9,46.7,55,46.4,55.1z
				 M16.5,48l-0.6-0.1c2.8-1,6.8-1.7,11.3-2l0.2,0.2C23.1,46.4,19.2,47,16.5,48z M48.9,53.3c1.4-1.2,1.2-2.5-0.4-3.7l0.7-0.1
				c1.7,1.3,1.9,2.6,0.4,3.9L48.9,53.3z M32.5,46.1l0.1-0.2c0.4,0,0.9,0,1.3,0l-0.1,0.2C33.4,46.1,32.9,46.1,32.5,46.1z M47.9,49.2
				c-0.8-0.5-1.7-0.9-2.9-1.3l0.6-0.1c1.2,0.4,2.2,0.8,3,1.3L47.9,49.2z"/>
			<path class="st11" d="M17.3,57.4C6,55.1,3.1,50.6,10.8,47.3c7.7-3.3,23-4,34.3-1.7s14.1,6.8,6.5,10.1
				C43.9,58.9,28.5,59.7,17.3,57.4z M43.5,46.3c-10-2-23.6-1.4-30.4,1.5s-4.2,6.9,5.7,8.9c10,2,23.6,1.4,30.4-1.5
				S53.5,48.3,43.5,46.3z"/>
			<path class="st11" d="M14.9,58.4C13,58,11.2,57.5,9.7,57l2-0.5c1.4,0.5,3,0.9,4.8,1.2c3.3,0.7,7,1.1,11,1.3L27,59.8
				C22.7,59.6,18.6,59.1,14.9,58.4z M5.2,55c-0.3-0.2-0.6-0.4-0.8-0.5l2.6-0.3c0.2,0.2,0.5,0.3,0.7,0.5L5.2,55z M29,59.9l0.2-0.8
				c2.4,0.1,4.9,0,7.2-0.1l0.6,0.8C34.4,60,31.7,60,29,59.9z M3.8,48.7c0.8-0.7,2-1.4,3.5-2.1l2.3,0.5c-1.4,0.6-2.5,1.2-3.2,1.9
				L3.8,48.7z M53.8,56.9l-2.2-0.5c0.4-0.1,0.7-0.3,1.1-0.4l0.1,0l2.3,0.5l-0.1,0C54.6,56.6,54.2,56.7,53.8,56.9z M10.7,46.7
				l-2.2-0.5c4.2-1.5,10.1-2.6,16.7-3l0.6,0.8C19.8,44.3,14.4,45.3,10.7,46.7z M56,54c1.9-1.7,1.7-3.5-0.6-5.2l2.5-0.3
				c2.5,1.9,2.8,3.9,0.7,5.8L56,54z M33.1,43.9l0.2-0.8c0.7,0,1.3,0,2,0.1l-0.4,0.8C34.3,43.9,33.7,43.9,33.1,43.9z M54.6,48.3
				c-1.1-0.6-2.4-1.3-4-1.8l2-0.5c1.8,0.6,3.3,1.3,4.5,2L54.6,48.3z"/>
			<path class="st11" d="M21.2,55.7c-8-1.6-10.1-4.9-4.6-7.2c5.5-2.3,16.4-2.9,24.5-1.2s10.1,4.9,4.6,7.2
				C40.2,56.8,29.3,57.4,21.2,55.7z M40,47.7c-7.2-1.5-17-1-21.9,1.1c-4.9,2.1-3,5,4.1,6.4c7.2,1.5,17,1,21.9-1.1
				C49.1,52.1,47.2,49.2,40,47.7z"/>
			<path class="st11" d="M24.7,54.3c-5.3-1.1-6.6-3.2-3-4.7c3.6-1.5,10.8-1.9,16-0.8c5.3,1.1,6.6,3.2,3,4.7
				C37.1,55,29.9,55.3,24.7,54.3z M37.3,48.9c-5-1-11.8-0.7-15.2,0.8S20,53.1,25,54.1c5,1,11.8,0.7,15.2-0.8
				C43.6,51.9,42.3,49.9,37.3,48.9z"/>
			<path class="st11" d="M23.8,54.6c-6-1.2-7.5-3.6-3.4-5.3c4.1-1.7,12.2-2.1,18.2-0.9c6,1.2,7.5,3.6,3.4,5.3
				C37.9,55.4,29.8,55.8,23.8,54.6z M38.2,48.5c-5.7-1.2-13.5-0.8-17.4,0.9c-3.9,1.7-2.4,3.9,3.3,5.1s13.5,0.8,17.4-0.9
				C45.4,52,43.9,49.7,38.2,48.5z"/>
			<path class="st11" d="M22.9,55L22.9,55c-0.8-0.2-1.5-0.3-2.2-0.5l0.4-0.1c0.6,0.2,1.3,0.4,2.1,0.5L22.9,55z M18.9,53.8
				c-0.3-0.1-0.5-0.2-0.7-0.4l0.6-0.1c0.2,0.1,0.4,0.2,0.7,0.3L18.9,53.8z M30.8,55.8l0-0.2c1.1,0,2.2,0,3.2-0.1l0.1,0.2
				C33.1,55.8,32,55.8,30.8,55.8z M16.7,52.3c-0.2-0.3-0.3-0.7-0.3-1l0.6,0c0,0.3,0.1,0.6,0.3,0.9L16.7,52.3z M38.2,55.3l-0.3-0.2
				c0.4-0.1,0.8-0.1,1.2-0.2l0.4,0.2C39,55.2,38.6,55.3,38.2,55.3z M41.5,54.6l-0.4-0.1c0.6-0.2,1.2-0.4,1.7-0.6l0.6,0.1l0,0
				C42.8,54.2,42.2,54.4,41.5,54.6z M19,49L19,49c0.5-0.2,1.1-0.4,1.8-0.6l0.4,0.1c-0.6,0.2-1.2,0.4-1.7,0.6L19,49z M23.3,48
				l-0.4-0.2c0.4-0.1,0.8-0.1,1.2-0.2l0.3,0.2C24.1,47.9,23.7,47.9,23.3,48z M45.3,51.7c0-0.3-0.1-0.6-0.3-0.9l0.6,0
				c0.2,0.3,0.3,0.7,0.3,1L45.3,51.7z M28.2,47.4l-0.1-0.2c1.1-0.1,2.2-0.1,3.4-0.1l0,0.2C30.4,47.3,29.3,47.4,28.2,47.4z
				 M43.6,49.6c-0.2-0.1-0.4-0.2-0.7-0.3l0.5-0.1c0.3,0.1,0.5,0.2,0.7,0.4L43.6,49.6z M41.2,48.6c-0.6-0.2-1.3-0.4-2-0.5l0.3-0.2
				l0,0c0.8,0.2,1.5,0.3,2.1,0.5L41.2,48.6z"/>
			<path class="st11" d="M24.7,54.3c-5.3-1.1-6.6-3.2-3-4.7c3.6-1.5,10.8-1.9,16-0.8c5.3,1.1,6.6,3.2,3,4.7
				C37.1,55,29.9,55.3,24.7,54.3z M37.3,48.9c-5-1-11.8-0.7-15.2,0.8S20,53.1,25,54.1c5,1,11.8,0.7,15.2-0.8
				C43.6,51.9,42.3,49.9,37.3,48.9z"/>
			<path class="st11" d="M28.9,53.4l0.3-0.3c0.5,0.1,1,0.1,1.6,0.1l-0.1,0.3C30,53.5,29.4,53.5,28.9,53.4z M24.8,52.4
				c-0.5-0.3-0.8-0.7-0.7-1.1l0.9,0c-0.1,0.3,0.1,0.6,0.6,0.9L24.8,52.4z M34.2,53.4l-0.4-0.2c1-0.1,1.8-0.3,2.4-0.6l0.8,0.1l0,0
				C36.3,53,35.3,53.2,34.2,53.4z M25.5,50.3l-0.2,0c0.3-0.1,0.8-0.3,1.2-0.4l0.6,0.2c-0.4,0.1-0.7,0.2-1,0.3L25.5,50.3z M37.2,51.2
				c-0.1-0.2-0.3-0.3-0.5-0.4l0.8-0.1c0.3,0.2,0.5,0.3,0.6,0.5L37.2,51.2z M31.6,49.7l0.1-0.3c1.2,0,2.4,0.2,3.5,0.4L34.6,50
				C33.7,49.8,32.6,49.7,31.6,49.7z"/>
		</g>
	</g>
</g>
<g>
	<defs>
		<filter id="Adobe_OpacityMaskFilter_1_" filterUnits="userSpaceOnUse" x="7" y="1" width="49" height="53.8">
			<feFlood  style="flood-color:white;flood-opacity:1" result="back"/>
			<feBlend  in="SourceGraphic" in2="back" mode="normal"/>
		</filter>
	</defs>
	<mask maskUnits="userSpaceOnUse" x="7" y="1" width="49" height="53.8" id="SVGID_2_">
		<g class="st12">
			<image style="overflow:visible;" width="53" height="58" xlink:href="80E2863594639FC6.jpg"  transform="matrix(1 0 0 1 5 -1)">
			</image>
		</g>
	</mask>
	<g class="st13">
		<linearGradient id="SVGID_3_" gradientUnits="userSpaceOnUse" x1="7" y1="27.885" x2="56" y2="27.885">
			<stop  offset="0" style="stop-color:#00C6EF;stop-opacity:0"/>
			<stop  offset="0.5221" style="stop-color:#B1FFFF"/>
			<stop  offset="0.7567" style="stop-color:#53E1F6;stop-opacity:0.509"/>
			<stop  offset="0.9216" style="stop-color:#17CDF1;stop-opacity:0.1641"/>
			<stop  offset="1" style="stop-color:#00C6EF;stop-opacity:0"/>
		</linearGradient>
		<path class="st14" d="M7,3.1c12.7-2.8,35.7-2.7,49,0c0,0-11.8,43.4-13.9,48.4c-1.9,4.5-20.1,4.5-22-0.4C18,45.5,7,3.1,7,3.1z"/>
	</g>
</g>
</svg>
