<?xml version="1.0" encoding="utf-8"?>
<!-- Generator: Adobe Illustrator 22.0.1, SVG Export Plug-In . SVG Version: 6.00 Build 0)  -->
<svg version="1.1" id="Layer_1" xmlns="http://www.w3.org/2000/svg" xmlns:xlink="http://www.w3.org/1999/xlink" x="0px" y="0px"
	 viewBox="0 0 64 64" style="enable-background:new 0 0 64 64;" xml:space="preserve">
<style type="text/css">
	.st0{display:none;}
	.st1{display:inline;fill:none;stroke:#54EFFF;stroke-miterlimit:10;}
	.st2{display:inline;fill:none;stroke:#54EFFF;stroke-linecap:round;stroke-linejoin:round;stroke-miterlimit:10;}
	.st3{display:inline;}
	.st4{fill:#54EFFF;}
	.st5{font-family:'MarqueeMoon-Regular';}
	.st6{font-size:16.6022px;}
	.st7{fill:none;stroke:#54EFFF;stroke-linecap:round;stroke-linejoin:round;stroke-miterlimit:10;}
	.st8{fill:none;stroke:#54EFFF;stroke-miterlimit:10;}
	.st9{fill:none;stroke:#54EFFF;stroke-linejoin:round;stroke-miterlimit:10;}
</style>
<g class="st0">
	<circle class="st1" cx="32" cy="32" r="31"/>
	<path class="st2" d="M37.2,56.7c9.2,0,20.7-10.3,20.7-21.8h2.3c0,13.8-12.6,25.3-25.8,25.3"/>
	<path class="st2" d="M27.4,56.7c-9.2,0-20.7-10.3-20.7-21.8H4.4c0,13.8,12.6,25.3,25.8,25.3"/>
	<text transform="matrix(1 0 0 1 17.3979 29.0229)" class="st3"><tspan x="0" y="0" class="st4 st5 st6">Game</tspan><tspan x="-1.9" y="19.9" class="st4 st5 st6">Token</tspan></text>
	<circle class="st1" cx="32.2" cy="60.2" r="1.8"/>
	<circle class="st1" cx="29" cy="56.5" r="1.5"/>
	<circle class="st1" cx="35.5" cy="56.5" r="1.5"/>
	<g class="st3">
		<path class="st7" d="M37.2,8.3c9.2,0,20.7,10.3,20.7,21.8h2.3c0-13.8-12.6-25.3-25.8-25.3"/>
		<path class="st7" d="M27.4,8.3c-9.2,0-20.7,10.3-20.7,21.8H4.4c0-13.8,12.6-25.3,25.8-25.3"/>
		<circle class="st8" cx="32.2" cy="4.7" r="1.8"/>
		<circle class="st8" cx="29" cy="8.5" r="1.5"/>
		<circle class="st8" cx="35.5" cy="8.5" r="1.5"/>
	</g>
	<g class="st3">
		<circle class="st8" cx="36.6" cy="32" r="1.5"/>
		<circle class="st8" cx="51.8" cy="45.1" r="1.1"/>
		<polyline class="st7" points="38.7,32 51.8,32 51.8,44 		"/>
	</g>
	<g class="st3">
		<circle class="st8" cx="36.6" cy="32" r="1.5"/>
		<circle class="st8" cx="51.8" cy="45.1" r="1.1"/>
		<polyline class="st7" points="38.7,32 51.8,32 51.8,44 		"/>
	</g>
	<g class="st3">
		<circle class="st8" cx="28.3" cy="31.9" r="1.5"/>
		<circle class="st8" cx="13.2" cy="18.8" r="1.1"/>
		<polyline class="st7" points="26.3,31.9 13.2,31.9 13.2,19.9 		"/>
	</g>
</g>
<rect x="1.7" y="0.9" class="st9" width="60.7" height="62.1"/>
<g>
	<path class="st4" d="M32.2,32.3c2.6,0,4.9,1,6.6,2.7s2.7,4,2.7,6.6c0,2.6-1,4.9-2.7,6.6c-1.7,1.7-4,2.7-6.6,2.7
		c-2.6,0-4.9-1-6.6-2.7c-1.7-1.7-2.7-4-2.7-6.6c0-2.6,1-4.9,2.7-6.6C27.3,33.3,29.6,32.3,32.2,32.3L32.2,32.3z M38.3,35.4
		c-1.6-1.6-3.7-2.5-6.1-2.5s-4.5,1-6.1,2.5c-1.6,1.6-2.5,3.7-2.5,6.1c0,2.4,1,4.5,2.5,6.1c1.6,1.6,3.7,2.5,6.1,2.5
		c2.4,0,4.5-1,6.1-2.5c1.6-1.6,2.5-3.7,2.5-6.1C40.8,39.2,39.9,37,38.3,35.4L38.3,35.4z M33.6,36c-0.1,0-0.2-0.2-0.2-0.3
		c0-0.1,0.2-0.2,0.3-0.2c1.3,0.3,2.5,1.1,3.3,2.2c0.8,1,1.3,2.4,1.3,3.8c0,1.7-0.7,3.2-1.8,4.4c-1.1,1.1-2.7,1.8-4.4,1.8
		c-1.7,0-3.2-0.7-4.4-1.8c-1.1-1.1-1.8-2.7-1.8-4.4c0-1.4,0.5-2.7,1.3-3.8c0.8-1.1,2-1.9,3.3-2.2c0.1,0,0.3,0,0.3,0.2
		c0,0.1,0,0.3-0.2,0.3c-1.2,0.3-2.3,1-3.1,2c-0.7,1-1.2,2.2-1.2,3.5c0,1.6,0.6,3,1.7,4s2.5,1.7,4,1.7c1.6,0,3-0.6,4-1.7
		c1-1,1.7-2.5,1.7-4c0-1.3-0.4-2.5-1.2-3.5C35.9,37.1,34.9,36.3,33.6,36L33.6,36z M35.7,38.1c0.1,0.1,0.2,0.2,0.1,0.3
		c0,0.1-0.2,0.1-0.3,0c-0.1-0.1-0.2-0.2-0.1-0.3C35.4,38.1,35.5,38,35.7,38.1L35.7,38.1z M28.7,38.1c-0.1,0.1-0.2,0.2-0.1,0.3
		c0,0.1,0.2,0.1,0.3,0c0.1-0.1,0.2-0.2,0.1-0.3C29,38.1,28.9,38,28.7,38.1L28.7,38.1z M35.7,45c0.1-0.1,0.2-0.2,0.1-0.3
		c0-0.1-0.2-0.1-0.3,0c-0.1,0.1-0.2,0.2-0.1,0.3C35.4,45,35.5,45,35.7,45L35.7,45z M28.7,45c-0.1-0.1-0.2-0.2-0.1-0.3
		c0-0.1,0.2-0.1,0.3,0c0.1,0.1,0.2,0.2,0.1,0.3C29,45,28.9,45,28.7,45L28.7,45z"/>
	<path class="st4" d="M32.2,13.2c2.6,0,4.9,1,6.6,2.7s2.7,4,2.7,6.6s-1,4.9-2.7,6.6c-1.7,1.7-4,2.7-6.6,2.7c-2.6,0-4.9-1-6.6-2.7
		c-1.7-1.7-2.7-4-2.7-6.6s1-4.9,2.7-6.6C27.3,14.2,29.6,13.2,32.2,13.2L32.2,13.2z M38.3,16.4c-1.6-1.6-3.7-2.5-6.1-2.5
		s-4.5,1-6.1,2.5c-1.6,1.6-2.5,3.7-2.5,6.1s1,4.5,2.5,6.1c1.6,1.6,3.7,2.5,6.1,2.5c2.4,0,4.5-1,6.1-2.5c1.6-1.6,2.5-3.7,2.5-6.1
		S39.9,17.9,38.3,16.4L38.3,16.4z M33.6,16.9c-0.1,0-0.2-0.2-0.2-0.3c0-0.1,0.2-0.2,0.3-0.2c1.3,0.3,2.5,1.1,3.3,2.2
		c0.8,1,1.3,2.4,1.3,3.8c0,1.7-0.7,3.2-1.8,4.4c-1.1,1.1-2.7,1.8-4.4,1.8c-1.7,0-3.2-0.7-4.4-1.8c-1.1-1.1-1.8-2.7-1.8-4.4
		c0-1.4,0.5-2.7,1.3-3.8c0.8-1.1,2-1.9,3.3-2.2c0.1,0,0.3,0,0.3,0.2c0,0.1,0,0.3-0.2,0.3c-1.2,0.3-2.3,1-3.1,2
		c-0.7,1-1.2,2.2-1.2,3.5c0,1.6,0.6,3,1.7,4s2.5,1.7,4,1.7c1.6,0,3-0.6,4-1.7c1-1,1.7-2.5,1.7-4c0-1.3-0.4-2.5-1.2-3.5
		C35.9,18,34.9,17.2,33.6,16.9L33.6,16.9z M35.7,19c0.1,0.1,0.2,0.2,0.1,0.3c0,0.1-0.2,0.1-0.3,0c-0.1-0.1-0.2-0.2-0.1-0.3
		C35.4,19,35.5,19,35.7,19L35.7,19z M28.7,19c-0.1,0.1-0.2,0.2-0.1,0.3c0,0.1,0.2,0.1,0.3,0c0.1-0.1,0.2-0.2,0.1-0.3
		C29,19,28.9,19,28.7,19L28.7,19z M35.7,25.9c0.1-0.1,0.2-0.2,0.1-0.3c0-0.1-0.2-0.1-0.3,0c-0.1,0.1-0.2,0.2-0.1,0.3
		C35.4,25.9,35.5,26,35.7,25.9L35.7,25.9z M28.7,25.9c-0.1-0.1-0.2-0.2-0.1-0.3c0-0.1,0.2-0.1,0.3,0c0.1,0.1,0.2,0.2,0.1,0.3
		C29,25.9,28.9,26,28.7,25.9L28.7,25.9z"/>
	<path class="st4" d="M51.1,13.2c2.6,0,4.9,1,6.6,2.7c1.7,1.7,2.7,4,2.7,6.6s-1,4.9-2.7,6.6c-1.7,1.7-4,2.7-6.6,2.7
		c-2.6,0-4.9-1-6.6-2.7c-1.7-1.7-2.7-4-2.7-6.6s1-4.9,2.7-6.6C46.2,14.2,48.5,13.2,51.1,13.2L51.1,13.2z M57.2,16.4
		c-1.6-1.6-3.7-2.5-6.1-2.5c-2.4,0-4.5,1-6.1,2.5c-1.6,1.6-2.5,3.7-2.5,6.1s1,4.5,2.5,6.1c1.6,1.6,3.7,2.5,6.1,2.5
		c2.4,0,4.5-1,6.1-2.5c1.6-1.6,2.5-3.7,2.5-6.1S58.8,17.9,57.2,16.4L57.2,16.4z M52.5,16.9c-0.1,0-0.2-0.2-0.2-0.3
		c0-0.1,0.2-0.2,0.3-0.2c1.3,0.3,2.5,1.1,3.3,2.2c0.8,1,1.3,2.4,1.3,3.8c0,1.7-0.7,3.2-1.8,4.4c-1.1,1.1-2.7,1.8-4.4,1.8
		c-1.7,0-3.2-0.7-4.4-1.8c-1.1-1.1-1.8-2.7-1.8-4.4c0-1.4,0.5-2.7,1.3-3.8c0.8-1.1,2-1.9,3.3-2.2c0.1,0,0.3,0,0.3,0.2
		c0,0.1,0,0.3-0.2,0.3c-1.2,0.3-2.3,1-3.1,2c-0.7,1-1.2,2.2-1.2,3.5c0,1.6,0.6,3,1.7,4c1,1,2.5,1.7,4,1.7c1.6,0,3-0.6,4-1.7
		c1-1,1.7-2.5,1.7-4c0-1.3-0.4-2.5-1.2-3.5C54.8,18,53.8,17.2,52.5,16.9L52.5,16.9z M54.6,19c0.1,0.1,0.2,0.2,0.1,0.3
		c0,0.1-0.2,0.1-0.3,0c-0.1-0.1-0.2-0.2-0.1-0.3C54.3,19,54.4,19,54.6,19L54.6,19z M47.6,19c-0.1,0.1-0.2,0.2-0.1,0.3
		c0,0.1,0.2,0.1,0.3,0c0.1-0.1,0.2-0.2,0.1-0.3C47.9,19,47.8,19,47.6,19L47.6,19z M54.6,25.9c0.1-0.1,0.2-0.2,0.1-0.3
		c0-0.1-0.2-0.1-0.3,0c-0.1,0.1-0.2,0.2-0.1,0.3C54.3,25.9,54.4,26,54.6,25.9L54.6,25.9z M47.6,25.9c-0.1-0.1-0.2-0.2-0.1-0.3
		c0-0.1,0.2-0.1,0.3,0c0.1,0.1,0.2,0.2,0.1,0.3C47.9,25.9,47.8,26,47.6,25.9L47.6,25.9z"/>
	<path class="st4" d="M12.9,32.3c2.6,0,4.9,1,6.6,2.7c1.7,1.7,2.7,4,2.7,6.6c0,2.6-1,4.9-2.7,6.6c-1.7,1.7-4,2.7-6.6,2.7
		c-2.6,0-4.9-1-6.6-2.7c-1.7-1.7-2.7-4-2.7-6.6c0-2.6,1-4.9,2.7-6.6S10.3,32.3,12.9,32.3L12.9,32.3z M19,35.4
		c-1.6-1.6-3.7-2.5-6.1-2.5s-4.5,1-6.1,2.5c-1.6,1.6-2.5,3.7-2.5,6.1c0,2.4,1,4.5,2.5,6.1c1.6,1.6,3.7,2.5,6.1,2.5
		c2.4,0,4.5-1,6.1-2.5c1.6-1.6,2.5-3.7,2.5-6.1C21.5,39.2,20.6,37,19,35.4L19,35.4z M14.3,36c-0.1,0-0.2-0.2-0.2-0.3
		c0-0.1,0.2-0.2,0.3-0.2c1.3,0.3,2.5,1.1,3.3,2.2c0.8,1,1.3,2.4,1.3,3.8c0,1.7-0.7,3.2-1.8,4.4c-1.1,1.1-2.7,1.8-4.4,1.8
		S9.7,47,8.5,45.9c-1.1-1.1-1.8-2.7-1.8-4.4c0-1.4,0.5-2.7,1.3-3.8c0.8-1.1,2-1.9,3.3-2.2c0.1,0,0.3,0,0.3,0.2c0,0.1,0,0.3-0.2,0.3
		c-1.2,0.3-2.3,1-3.1,2c-0.7,1-1.2,2.2-1.2,3.5c0,1.6,0.6,3,1.7,4s2.5,1.7,4,1.7s3-0.6,4-1.7c1-1,1.7-2.5,1.7-4
		c0-1.3-0.4-2.5-1.2-3.5C16.7,37.1,15.6,36.3,14.3,36L14.3,36z M16.4,38.1c0.1,0.1,0.2,0.2,0.1,0.3c0,0.1-0.2,0.1-0.3,0
		c-0.1-0.1-0.2-0.2-0.1-0.3C16.1,38.1,16.2,38,16.4,38.1L16.4,38.1z M9.4,38.1c-0.1,0.1-0.2,0.2-0.1,0.3c0,0.1,0.2,0.1,0.3,0
		c0.1-0.1,0.2-0.2,0.1-0.3C9.7,38.1,9.6,38,9.4,38.1L9.4,38.1z M16.4,45c0.1-0.1,0.2-0.2,0.1-0.3c0-0.1-0.2-0.1-0.3,0
		c-0.1,0.1-0.2,0.2-0.1,0.3C16.1,45,16.2,45,16.4,45L16.4,45z M9.4,45c-0.1-0.1-0.2-0.2-0.1-0.3c0-0.1,0.2-0.1,0.3,0
		c0.1,0.1,0.2,0.2,0.1,0.3C9.7,45,9.6,45,9.4,45L9.4,45z"/>
</g>
</svg>
